<svg width="110" height="78" viewBox="0 0 110 78" fill="none" xmlns="http://www.w3.org/2000/svg">
<path d="M9.16602 9.75H36.666C41.5283 9.75 46.1915 11.1196 49.6296 13.5576C53.0678 15.9956 54.9993 19.3022 54.9993 22.75V68.25C54.9993 65.6641 53.5507 63.1842 50.9721 61.3557C48.3934 59.5272 44.8961 58.5 41.2493 58.5H9.16602V9.75Z" stroke="url(#paint0_linear_2651_245)" stroke-width="2" stroke-linecap="round" stroke-linejoin="round"/>
<path d="M100.833 9.75H73.3333C68.471 9.75 63.8079 11.1196 60.3697 13.5576C56.9315 15.9956 55 19.3022 55 22.75V68.25C55 65.6641 56.4487 63.1842 59.0273 61.3557C61.6059 59.5272 65.1033 58.5 68.75 58.5H100.833V9.75Z" stroke="url(#paint1_linear_2651_245)" stroke-width="2" stroke-linecap="round" stroke-linejoin="round"/>
<defs>
<linearGradient id="paint0_linear_2651_245" x1="32.0827" y1="9.75" x2="32.0827" y2="68.25" gradientUnits="userSpaceOnUse">
<stop stop-color="#A54A95"/>
<stop offset="1" stop-color="#3F1C39"/>
</linearGradient>
<linearGradient id="paint1_linear_2651_245" x1="77.9167" y1="9.75" x2="77.9167" y2="68.25" gradientUnits="userSpaceOnUse">
<stop stop-color="#A54A95"/>
<stop offset="1" stop-color="#3F1C39"/>
</linearGradient>
</defs>
</svg>
